<?xml version="1.0" encoding="iso-8859-1"?>
<!-- Generator: Adobe Illustrator 21.0.0, SVG Export Plug-In . SVG Version: 6.00 Build 0)  -->
<svg xmlns="http://www.w3.org/2000/svg" xmlns:xlink="http://www.w3.org/1999/xlink" version="1.1" id="Capa_1" x="0px" y="0px" viewBox="0 0 512 512" style="enable-background:new 0 0 512 512;" xml:space="preserve" width="512" height="512">
<g>
	<path d="M46,361c-8.284,0-15,6.716-15,15v60c0,8.284,6.716,15,15,15h45v46c0,8.284,6.716,15,15,15h60c8.284,0,15-6.716,15-15v-46   h45c8.284,0,15-6.716,15-15v-60c0-8.284-6.716-15-15-15h-45v-41.133c5.287-2.513,10.298-5.455,15.017-8.752   C213.548,323.351,234.421,330,256,330c57.897,0,105-47.103,105-105c0-12.179-2.044-24.002-6.088-35.277L391,153.635V165   c0,8.284,6.716,15,15,15h60c8.284,0,15-6.716,15-15V15c0-8.284-6.716-15-15-15H316c-8.284,0-15,6.716-15,15v60   c0,8.284,6.716,15,15,15h11.365l-36.088,36.088C280.002,122.044,268.178,120,256,120c-22.298,0-42.99,6.992-60.011,18.89   C178.457,126.651,157.582,120,136,120c-57.897,0-105,47.103-105,105c0,40.743,23.713,77.618,60,94.867V361H46z M111.012,295.722   C81.098,285.117,61,256.696,61,225c0-41.355,33.645-75,75-75c13.278,0,26.182,3.535,37.512,10.103   c-6.173,7.83-11.254,16.556-15.019,25.948C151.871,182.211,144.191,180,136,180c-24.813,0-45,20.187-45,45s20.187,45,45,45   s45-20.187,45-45c0-41.355,33.645-75,75-75c11.306,0,22.174,2.462,32.301,7.317c5.739,2.752,12.591,1.583,17.092-2.919   l68.792-68.792c4.29-4.29,5.573-10.742,3.252-16.347c-2.322-5.605-7.791-9.26-13.858-9.26H331V30h120v120h-30v-32.578   c0-6.067-3.654-11.537-9.26-13.858c-5.602-2.32-12.057-1.038-16.347,3.252l-68.792,68.792c-4.501,4.501-5.671,11.353-2.919,17.092   C328.538,202.825,331,213.693,331,225c0,41.355-33.645,75-75,75c-13.282,0-26.191-3.537-37.523-10.109   c6.192-7.874,11.247-16.619,14.993-25.962C240.101,267.781,247.794,270,256,270c24.813,0,45-20.187,45-45s-20.187-45-45-45   c-24.813,0-45,20.187-45,45c0,31.704-20.121,60.125-50.012,70.722c-5.987,2.123-9.988,7.786-9.988,14.138V376   c0,8.284,6.716,15,15,15h45v30h-45c-8.284,0-15,6.716-15,15v46h-30v-46c0-8.284-6.716-15-15-15H61v-30h45c8.284,0,15-6.716,15-15   v-66.14C121,303.508,116.999,297.845,111.012,295.722z M151,225c0,8.271-6.729,15-15,15s-15-6.729-15-15s6.729-15,15-15   S151,216.729,151,225z M241,225c0-8.271,6.729-15,15-15s15,6.729,15,15s-6.729,15-15,15S241,233.271,241,225z"/>
</g>















</svg>
